<svg width="384" height="160" viewBox="0 0 384 160" fill="none" xmlns="http://www.w3.org/2000/svg">
<rect x="42" y="13.4897" width="146" height="84" rx="8" fill="#E9E9E9"/>
<path d="M136 77.065H168M136 69.1358H168M136 61.2066H168M136 53.2774H168M136 45.3482H168M136 37.4189H168M136 29.4897H168" stroke="#EFEFEF"/>
<rect x="140" y="35.9323" width="8" height="49.5575" fill="#C4C4C4"/>
<rect x="150" y="73.5959" width="8" height="11.8938" fill="#F9F9F9"/>
<line x1="136" y1="84.9897" x2="168" y2="84.9897" stroke="#D0D0D0"/>
<path d="M101 50.5C101 55.0108 99.5813 59.4073 96.9446 63.0672C94.308 66.7271 90.587 69.4651 86.3084 70.8935C82.0298 72.3219 77.4103 72.3685 73.1037 71.0265C68.7972 69.6846 65.0218 67.0221 62.312 63.416C59.6022 59.8099 58.0952 55.4429 58.0044 50.933C57.9135 46.4232 59.2434 41.999 61.8058 38.2867C64.3682 34.5744 68.0332 31.7621 72.2822 30.2477C76.5312 28.7334 81.1489 28.5939 85.4815 29.8488L79.5 50.5H101Z" fill="#DCDCDC"/>
<path d="M101 50.5C101 53.6507 100.308 56.7629 98.9716 59.6163C97.6356 62.4698 95.6889 64.9947 93.2691 67.0125C90.8493 69.0303 88.0156 70.4916 84.9685 71.2929C81.9214 72.0943 78.7354 72.2162 75.636 71.6499L79.5 50.5H101Z" fill="#F2F2F2"/>
<path d="M84.5 62.5L95 42.5H117" stroke="#DFDFDF" stroke-linecap="round"/>
<rect x="196" y="39.4897" width="146" height="84" rx="8" fill="#E9E9E9"/>
<line x1="212" y1="110.5" x2="326" y2="110.5" stroke="#D0D0D0"/>
<path d="M240 95L219 102V110.5H324V59L303 76.5L282 86L261 97L240 95Z" fill="url(#paint0_linear)"/>
<circle cx="219" cy="102" r="2" fill="#C4C4C4"/>
<circle cx="240" cy="95" r="2" fill="#C4C4C4"/>
<circle cx="261" cy="97" r="2" fill="#C4C4C4"/>
<circle cx="282" cy="86" r="2" fill="#C4C4C4"/>
<circle cx="303" cy="76" r="2" fill="#C4C4C4"/>
<circle cx="324" cy="59" r="2" fill="#C4C4C4"/>
<path d="M152.647 37.3179L162.161 47.7097L153.916 47.8484C155.034 49.4467 157.04 53.3264 156.116 56.0587C152.1 54.7947 144.065 51.466 143.071 48.0037C143.734 50.8016 146.269 56.8774 151.838 61.346C150.424 63.7954 145.644 67.9751 137.833 65.0986C135.073 64.4578 129.426 64.2455 128.916 68.5234C128.406 72.8012 129.572 78.7003 130.219 81.1151L100.093 71.0701C103.108 70.0895 109.788 66.2981 112.382 58.9774C114.5 51.7908 109.075 49.8558 106.473 46.5845C103.471 41.1771 101.021 28.1681 115.233 19.3905C132.999 8.4186 145.892 17.9047 151.086 23.7601C155.24 28.4444 153.858 34.7505 152.647 37.3179Z" fill="white" stroke="#393939" stroke-linecap="round" stroke-linejoin="round"/>
<path d="M125.476 38.3014L125.597 31.0221C125.079 29.0903 122.696 29.2112 121.569 29.5131C115.98 31.8387 116.843 36.9909 117.973 39.2764C116.255 52.1168 114.016 52.7442 115.484 56.2537C115.65 56.3658 115.5 56.2905 115.5 56.2905C115.495 56.2782 115.49 56.2659 115.484 56.2537C115.223 56.0768 114.173 55.4332 110.5 53.2907C104.5 49.7905 96.9975 32.4734 98.4721 26.3844C102.916 8.03416 122.884 6.72989 130.787 7.89065C141.01 9.98266 159.578 16.4299 152.065 25.4829C144.552 34.5358 133.951 32.5796 129.59 30.4698L125.476 38.3014Z" fill="#786B7A"/>
<path d="M125.147 33.213C127.622 28.9264 119.157 27.4676 117.516 33.705C115.874 39.9424 120.144 40.9379 122.484 40.6559" stroke="#393939" stroke-linecap="round"/>
<ellipse cx="147.411" cy="35.8587" rx="1" ry="2" transform="rotate(0.999999 147.411 35.8587)" fill="#393939"/>
<path d="M150.836 30.5562C149.859 30.128 147.06 29.601 143.686 30.9191" stroke="#393939" stroke-linecap="round" stroke-linejoin="round"/>
<path d="M108.5 65.5206C100.427 66.0589 93.5 72.0206 89 79.0207C73 99.0206 73 159.5 73 159.5H158.5C158.5 159.5 158.068 136.385 153 109.02C150.5 95.5205 141.976 73.0401 132 69.0206C122.024 65.0011 116 65.0206 108.5 65.5206Z" fill="#1F1F20"/>
<path d="M244.456 46.0842C249.411 58.3534 267.066 57.0351 271.608 54.2516L270.938 52.8847L271.01 51.3043C271.641 48.9469 274.053 48.9614 275.18 49.2633C280.723 51.7592 278.291 60.8352 278.291 60.8352L298.79 44.2197C298.79 44.2197 279.822 16.3337 271.738 18.1683C261.249 21.2532 237.811 29.6298 244.456 46.0842Z" fill="#7A746B"/>
<path d="M240.5 63L248.725 49.3179C247.515 46.7505 246.132 40.4444 250.287 35.7601C255.48 29.9047 268.374 20.4186 286.139 31.3905C300.352 40.1681 297.901 53.1771 294.899 58.5845C292.297 61.8558 286.872 63.7908 288.991 70.9774C291.584 78.2981 298.264 82.0895 301.279 83.0701L271.153 93.1151C271.8 90.7003 272.967 84.8012 272.456 80.5234C271.946 76.2455 266.299 76.4578 263.539 77.0986C255.728 79.9751 250.948 75.7954 249.534 73.346C251.5 70.5 252.5 68.0587 252.5 64C249.5 66.5 248 67.5 245.256 68.0587C244.332 65.3264 244.5 65 246 63.5L240.5 63Z" fill="white" stroke="#393939" stroke-linecap="round" stroke-linejoin="round"/>
<path d="M291 84.23C299.073 84.7683 306 90.7299 310.5 97.73C326.5 117.73 328 159.5 328 159.5H242.5C242.5 159.5 241.432 155.094 246.5 127.73C249 114.23 257.524 91.7494 267.5 87.7299C277.476 83.7104 283.5 83.7299 291 84.23Z" fill="#AED3DE"/>
<path d="M249.307 37.483C254.756 47.9094 272.138 47.6099 276.5 45.5002L275.776 44.3332L275.776 43.0223C276.293 41.0905 278.677 41.2113 279.803 41.5132C285.392 43.8389 284.529 48.9911 283.399 51.2765C285.123 64.1617 278 117.458 276.5 121C283.666 126.167 301.6 133.2 316 120C330.4 106.8 330 99.5001 328 97.5002C322.666 91.5002 311.5 76.8001 309.5 66.0001C307.5 55.2001 304.267 43.0898 302.9 38.3846C298.456 20.0343 283.399 13.7578 270 16.4998C259.777 18.5919 242 23.5 249.307 37.483Z" fill="#7A746B"/>
<path d="M276.225 45.213C273.75 40.9264 282.215 39.4676 283.857 45.705C285.498 51.9424 281.228 52.9379 278.888 52.6559" stroke="#393939" stroke-linecap="round"/>
<circle cx="279" cy="53" r="2" fill="#C6B2E4"/>
<ellipse cx="253.402" cy="45.7491" rx="2.20412" ry="1.56976" transform="rotate(-8.06263 253.402 45.7491)" fill="#E3BBC1"/>
<ellipse rx="1" ry="2" transform="matrix(-0.999848 0.0174524 0.0174524 0.999848 253.962 47.8587)" fill="#393939"/>
<path d="M254.121 46.9852C254.389 46.9182 254.552 46.6467 254.485 46.3788C254.418 46.1109 254.146 45.9481 253.878 46.0151L254.121 46.9852ZM252.5 46.0001C252.5 45.724 252.276 45.5001 252 45.5001C251.724 45.5001 251.5 45.724 251.5 46.0001L252.5 46.0001ZM253.878 46.0151C253.574 46.0911 253.139 46.1524 252.804 46.1156C252.635 46.097 252.546 46.0587 252.511 46.0333C252.502 46.0272 252.5 46.0348 252.5 46.0001L251.5 46.0001C251.5 46.3655 251.664 46.6564 251.927 46.8451C252.162 47.0146 252.448 47.0825 252.695 47.1097C253.194 47.1645 253.759 47.0758 254.121 46.9852L253.878 46.0151Z" fill="#393939"/>
<path d="M251 44.0001C252 43.0002 253.5 42.5001 255.5 43.5002" stroke="#393939" stroke-linecap="round" stroke-linejoin="round"/>
<defs>
<linearGradient id="paint0_linear" x1="271.5" y1="59" x2="271.5" y2="110.5" gradientUnits="userSpaceOnUse">
<stop stop-color="#E1E1E1"/>
<stop offset="1" stop-color="#A5A5A5" stop-opacity="0"/>
</linearGradient>
</defs>
</svg>
