<svg width="66" height="27" viewBox="0 0 66 27" fill="none" xmlns="http://www.w3.org/2000/svg">
<rect width="65" height="26" transform="translate(0.5 0.489746)" fill="white"/>
<path d="M51.0644 17.1979C51.0644 17.7631 51.1701 18.2944 51.3813 18.7918C51.5926 19.2665 51.8742 19.6848 52.2263 20.0465C52.6019 20.4082 53.0361 20.6908 53.529 20.8943C54.0454 21.0978 54.597 21.1995 55.1838 21.1995C55.7472 21.1995 56.2753 21.0978 56.7682 20.8943C57.2846 20.6908 57.7189 20.4082 58.071 20.0465C58.4465 19.6848 58.7399 19.2665 58.9512 18.7918C59.1859 18.317 59.3033 17.8083 59.3033 17.2657C59.3033 16.7231 59.1859 16.2145 58.9512 15.7397C58.7399 15.2423 58.4465 14.8128 58.071 14.4511C57.7189 14.0893 57.2846 13.8067 56.7682 13.6033C56.2753 13.3998 55.7472 13.2981 55.1838 13.2981C54.597 13.2981 54.0454 13.3998 53.529 13.6033C53.0361 13.8067 52.6019 14.0893 52.2263 14.4511C51.8742 14.8128 51.5926 15.231 51.3813 15.7058C51.1701 16.1579 51.0644 16.6553 51.0644 17.1979ZM59.092 8.5504H65.5V25.9471H59.092V24.0142C57.7306 25.6646 55.888 26.4897 53.5642 26.4897C52.2498 26.4897 51.041 26.2637 49.9377 25.8115C48.8345 25.3367 47.8722 24.6811 47.0506 23.8446C46.2291 23.0081 45.5836 22.0247 45.1142 20.8943C44.6682 19.7639 44.4452 18.5318 44.4452 17.1979C44.4452 15.9545 44.6682 14.7789 45.1142 13.6711C45.5601 12.5407 46.1821 11.5572 46.9802 10.7208C47.7783 9.88427 48.7289 9.22864 49.8321 8.75387C50.9353 8.2565 52.1559 8.00781 53.4938 8.00781C55.7472 8.00781 57.6132 8.76518 59.092 10.2799V8.5504Z" fill="#1F1F20"/>
<path d="M28.3962 17.1649C28.3962 17.7463 28.4935 18.283 28.6881 18.775C28.9043 19.2446 29.1745 19.6582 29.4988 20.016C29.8446 20.3738 30.2446 20.6533 30.6986 20.8546C31.1742 21.0559 31.6714 21.1565 32.1902 21.1565C32.709 21.1565 33.1954 21.0559 33.6494 20.8546C34.125 20.6533 34.5249 20.3738 34.8492 20.016C35.1951 19.6582 35.4653 19.2446 35.6599 18.775C35.8761 18.283 35.9842 17.7575 35.9842 17.1985C35.9842 16.6618 35.8761 16.1586 35.6599 15.689C35.4653 15.1971 35.1951 14.7722 34.8492 14.4144C34.5249 14.0566 34.125 13.7771 33.6494 13.5759C33.1954 13.3746 32.709 13.274 32.1902 13.274C31.6714 13.274 31.1742 13.3746 30.6986 13.5759C30.2446 13.7771 29.8446 14.0566 29.4988 14.4144C29.1745 14.7722 28.9043 15.1859 28.6881 15.6555C28.4935 16.1251 28.3962 16.6282 28.3962 17.1649ZM22.2027 17.0978C22.2027 15.8232 22.4513 14.638 22.9485 13.5423C23.4457 12.4242 24.1375 11.4627 25.0238 10.6577C25.9102 9.83029 26.9586 9.1818 28.1692 8.71221C29.4015 8.24261 30.7418 8.00781 32.1902 8.00781C33.617 8.00781 34.9357 8.24261 36.1463 8.71221C37.3785 9.15944 38.4378 9.79675 39.3242 10.6241C40.2321 11.4291 40.9347 12.4019 41.4319 13.5423C41.9291 14.6604 42.1777 15.9015 42.1777 17.2655C42.1777 18.6296 41.9183 19.8819 41.3995 21.0223C40.9023 22.1404 40.2105 23.1131 39.3242 23.9405C38.4378 24.7455 37.3677 25.3717 36.1139 25.8189C34.8816 26.2661 33.5413 26.4897 32.0929 26.4897C30.6661 26.4897 29.3474 26.2661 28.1368 25.8189C26.9262 25.3717 25.8777 24.7343 24.9914 23.907C24.1267 23.0796 23.4457 22.0957 22.9485 20.9552C22.4513 19.7924 22.2027 18.5066 22.2027 17.0978Z" fill="url(#paint0_linear)"/>
<path fill-rule="evenodd" clip-rule="evenodd" d="M13.757 25.6544H22.2027L13.9993 15.3416C15.8684 14.9188 17.276 14.1178 18.2221 12.9386C19.1913 11.7371 19.6759 10.1796 19.6759 8.26609C19.6759 7.1981 19.4913 6.19685 19.1221 5.26235C18.7759 4.32786 18.2452 3.50461 17.5298 2.79261C16.8376 2.08061 15.9492 1.52437 14.8646 1.12387C13.78 0.70112 12.5109 0.489746 11.0571 0.489746H0.5V25.6544H7.28424V15.9757L13.757 25.6544ZM12.9169 8.4777C12.9169 10.1212 11.4909 11.4536 9.73173 11.4536C7.97258 11.4536 6.54651 10.1212 6.54651 8.4777C6.54651 6.83415 7.97258 5.50179 9.73173 5.50179C11.4909 5.50179 12.9169 6.83415 12.9169 8.4777Z" fill="#1F1F20"/>
<defs>
<linearGradient id="paint0_linear" x1="25.1332" y1="10.7193" x2="38.0907" y2="24.7236" gradientUnits="userSpaceOnUse">
<stop stop-color="#0206E4"/>
<stop offset="0.895833" stop-color="#7427EE"/>
</linearGradient>
</defs>
</svg>
